<?xml version="1.0" encoding="UTF-8" standalone="no"?> <svg width="64" height="64" viewBox="0 0 64 64" fill="none" xmlns="http://www.w3.org/2000/svg">
<path d="M55 15V43H9V15C9.00158 14.47 9.2128 13.9623 9.58753 13.5875C9.96227 13.2128 10.4701 13.0016 11 13H53C53.3212 12.9977 53.6377 13.0768 53.92 13.23C54.2451 13.3975 54.5178 13.6513 54.7083 13.9635C54.8988 14.2757 54.9997 14.6343 55 15Z" fill="#5AAAE7"/>
<path d="M55 15V43H15L45 13H53C53.3212 12.9977 53.6377 13.0768 53.92 13.23C54.2451 13.3975 54.5178 13.6513 54.7083 13.9635C54.8988 14.2757 54.9997 14.6343 55 15Z" fill="#3D9AE2"/>
<path d="M60 55V59C59.9984 59.5299 59.7872 60.0377 59.4125 60.4125C59.0377 60.7872 58.5299 60.9984 58 61H6C5.47005 60.9984 4.96227 60.7872 4.58753 60.4125C4.2128 60.0377 4.00158 59.5299 4 59V55H60Z" fill="#ACABB1"/>
<path d="M55 43L60 55H4L9 43H55Z" fill="#C6C5CA"/>
<path d="M51 6.99998C52.0877 6.99855 53.1642 7.2196 54.1634 7.64952C55.1625 8.07945 56.0632 8.70917 56.81 9.49998C55.9486 10.4132 54.8827 11.109 53.7 11.53C53.22 8.84998 52.19 6.99998 51 6.99998Z" fill="#00CCB3"/>
<path d="M55 19.07C54.5863 18.8299 54.1511 18.629 53.7 18.47C53.22 21.15 52.19 23 51 23C52.0867 22.9948 53.1612 22.7707 54.1594 22.3412C55.1576 21.9117 56.0591 21.2855 56.81 20.5C56.278 19.9394 55.6685 19.4579 55 19.07V19.07Z" fill="#00CCB3"/>
<path d="M56.81 9.5C55.9486 10.4132 54.8827 11.109 53.7 11.53C53.8023 12.0925 53.8758 12.6599 53.92 13.23C53.97 13.8 54 14.39 54 15C54.0032 16.1633 53.9028 17.3245 53.7 18.47C54.1511 18.629 54.5863 18.8299 55 19.07C55.6685 19.4579 56.278 19.9394 56.81 20.5C58.2166 19.0142 59.0005 17.046 59.0005 15C59.0005 12.954 58.2166 10.9858 56.81 9.5Z" fill="#00CCB3"/>
<path d="M53.92 13.23C53.8758 12.6599 53.8024 12.0925 53.7 11.53C51.9546 12.1567 50.0455 12.1567 48.3 11.53C48.21 11.99 48.15 12.48 48.1 13C48.0305 13.6644 47.9971 14.332 48 15C47.9968 16.1633 48.0972 17.3245 48.3 18.47C50.0455 17.8433 51.9546 17.8433 53.7 18.47C53.9028 17.3245 54.0032 16.1633 54 15C54 14.39 53.97 13.8 53.92 13.23Z" fill="#00CCB3"/>
<path d="M51 7C52.19 7 53.22 8.85 53.7 11.53C51.9546 12.1567 50.0455 12.1567 48.3 11.53C48.78 8.85 49.81 7 51 7Z" fill="#00CCB3"/>
<path d="M53.7 18.47C53.22 21.15 52.19 23 51 23C49.81 23 48.78 21.15 48.3 18.47C50.0455 17.8433 51.9546 17.8433 53.7 18.47V18.47Z" fill="#00CCB3"/>
<path d="M49 27V29C48.9984 29.5299 48.7872 30.0377 48.4125 30.4125C48.0377 30.7872 47.5299 30.9984 47 31H41V29C41.0016 28.4701 41.2128 27.9623 41.5875 27.5875C41.9623 27.2128 42.4701 27.0016 43 27H49Z" fill="#FFC477"/>
<path d="M51 6.99998C49.81 6.99998 48.78 8.84998 48.3 11.53C47.1173 11.109 46.0514 10.4132 45.19 9.49998C45.9368 8.70917 46.8375 8.07945 47.8366 7.64952C48.8358 7.2196 49.9123 6.99855 51 6.99998V6.99998Z" fill="#00CCB3"/>
<path d="M48.3 18.47C48.78 21.15 49.81 23 51 23C49.9123 23.0014 48.8358 22.7804 47.8366 22.3505C46.8375 21.9205 45.9368 21.2908 45.19 20.5C46.0514 19.5868 47.1173 18.891 48.3 18.47V18.47Z" fill="#00CCB3"/>
<path d="M48.1 13C48.15 12.48 48.21 11.99 48.3 11.53C47.1173 11.109 46.0514 10.4132 45.19 9.5C44.2593 10.4849 43.592 11.6887 43.25 13C43.0851 13.6539 43.0012 14.3256 43 15C42.9999 17.0459 43.7836 19.0141 45.19 20.5C46.0514 19.5868 47.1173 18.891 48.3 18.47C48.0972 17.3245 47.9968 16.1633 48 15C47.9971 14.332 48.0305 13.6644 48.1 13V13Z" fill="#00CCB3"/>
<path d="M47 31L45 37H39L41 31H47Z" fill="#898890"/>
<path d="M39 34.9V37H30L28.18 30.82L29 30L32 31L32.7 28.2L35.44 29.42C36.4995 29.8917 37.3997 30.6603 38.0315 31.6328C38.6633 32.6054 38.9997 33.7402 39 34.9V34.9Z" fill="#898890"/>
<path d="M39 7L34 8.67L27 11L20 8.67L15 7L27 3L39 7Z" fill="#ACABB1"/>
<path d="M27 11L20 8.66998V13V14H34V13V8.66998L27 11Z" fill="#898890"/>
<path d="M32.7 28.2L32 31L29 30L28 28L30 27L32.7 28.2Z" fill="#787680"/>
<path d="M28.18 30.82L30 37H24L25.82 30.82L27 32L28.18 30.82Z" fill="#ACABB1"/>
<path d="M28 28L29 30L28.18 30.82L27 32L25.82 30.82L25 30L26 28H28Z" fill="#ACABB1"/>
<path d="M26 28L25 30L22 31L21.3 28.2L24 27L26 28Z" fill="#787680"/>
<path d="M25.82 30.82L24 37H15V34.9C15.0003 33.7402 15.3367 32.6054 15.9685 31.6328C16.6003 30.6603 17.5005 29.8917 18.56 29.42L21.3 28.2L22 31L25 30L25.82 30.82Z" fill="#898890"/>
<path d="M20 15H19C18.4696 15 17.9609 15.2107 17.5858 15.5858C17.2107 15.9609 17 16.4696 17 17C17 17.5304 17.2107 18.0391 17.5858 18.4142C17.9609 18.7893 18.4696 19 19 19H21V15H20Z" fill="#FFB655"/>
<path d="M35 15H33V19H35C35.5304 19 36.0391 18.7893 36.4142 18.4142C36.7893 18.0391 37 17.5304 37 17C37 16.4696 36.7893 15.9609 36.4142 15.5858C36.0391 15.2107 35.5304 15 35 15Z" fill="#FFB655"/>
<path d="M30 24V27L28 28H26L24 27V24H30Z" fill="#FFC477"/>
<path d="M30 24V25.32C29.0633 25.7676 28.0382 26 27 26C25.9618 26 24.9367 25.7676 24 25.32V24H30Z" fill="#FFB655"/>
<path d="M34 15V18C34.004 18.3351 33.9772 18.6698 33.92 19C33.7593 20.1424 33.3168 21.2268 32.6325 22.1555C31.9482 23.0843 31.0435 23.8281 30 24.32C29.0109 24.7921 27.9245 25.0247 26.8288 24.9989C25.7331 24.9732 24.6588 24.6899 23.6929 24.1719C22.727 23.6539 21.8967 22.9158 21.269 22.0173C20.6413 21.1188 20.234 20.0851 20.08 19C20.0228 18.6698 19.996 18.3351 20 18V14H34V15Z" fill="#FFC477"/>
<path d="M60.92 54.62L56 42.8V25H54V42H10V15C10 14.7348 10.1054 14.4804 10.2929 14.2929C10.4804 14.1054 10.7348 14 11 14H17V12H11C10.2051 12.0024 9.4434 12.3192 8.8813 12.8813C8.31921 13.4434 8.00237 14.2051 8 15V42.8L3.08 54.62C3.02876 54.7402 3.00158 54.8693 3 55V59C3.00237 59.7949 3.31921 60.5566 3.8813 61.1187C4.4434 61.6808 5.20508 61.9976 6 62H58C58.7949 61.9976 59.5566 61.6808 60.1187 61.1187C60.6808 60.5566 60.9976 59.7949 61 59V55C60.9984 54.8693 60.9712 54.7402 60.92 54.62V54.62ZM9.67 44H54.33L58.5 54H5.5L9.67 44ZM59 59C59 59.2652 58.8946 59.5196 58.7071 59.7071C58.5196 59.8946 58.2652 60 58 60H6C5.73478 60 5.48043 59.8946 5.29289 59.7071C5.10536 59.5196 5 59.2652 5 59V56H59V59Z" fill="black"/>
<path d="M12 50H10V52H12V50Z" fill="black"/>
<path d="M16 50H14V52H16V50Z" fill="black"/>
<path d="M50 50H48V52H50V50Z" fill="black"/>
<path d="M54 50H52V52H54V50Z" fill="black"/>
<path d="M17 46H15V48H17V46Z" fill="black"/>
<path d="M13 46H11V48H13V46Z" fill="black"/>
<path d="M21 46H19V48H21V46Z" fill="black"/>
<path d="M25 46H23V48H25V46Z" fill="black"/>
<path d="M29 46H27V48H29V46Z" fill="black"/>
<path d="M33 46H31V48H33V46Z" fill="black"/>
<path d="M37 46H35V48H37V46Z" fill="black"/>
<path d="M41 46H39V48H41V46Z" fill="black"/>
<path d="M45 46H43V48H45V46Z" fill="black"/>
<path d="M49 46H47V48H49V46Z" fill="black"/>
<path d="M53 46H51V48H53V46Z" fill="black"/>
<path d="M22 50H18V52H22V50Z" fill="black"/>
<path d="M46 50H42V52H46V50Z" fill="black"/>
<path d="M40 50H24V52H40V50Z" fill="black"/>
<path d="M25 16H23V18H25V16Z" fill="black"/>
<path d="M31 16H29V18H31V16Z" fill="black"/>
<path d="M46.39 36L47.76 31.89C48.3997 31.7225 48.9661 31.3483 49.3712 30.8257C49.7763 30.3031 49.9973 29.6612 50 29V27C50 26.7348 49.8946 26.4804 49.7071 26.2929C49.5196 26.1053 49.2652 26 49 26H43C42.2051 26.0024 41.4434 26.3192 40.8813 26.8813C40.3192 27.4434 40.0024 28.2051 40 29V30.84L39.5 32.34C38.8298 30.6359 37.5199 29.2614 35.85 28.51L31 26.35V24.92C31.9164 24.3863 32.7185 23.677 33.3603 22.8327C34.0021 21.9884 34.4709 21.0258 34.74 20H35C35.7956 20 36.5587 19.6839 37.1213 19.1213C37.6839 18.5587 38 17.7956 38 17C38 16.2043 37.6839 15.4413 37.1213 14.8787C36.5587 14.3161 35.7956 14 35 14V9.38999L38 8.38999V13H40V6.99999C39.9985 6.79084 39.9323 6.58729 39.8106 6.41721C39.6888 6.24714 39.5175 6.11888 39.32 6.04999L27.32 2.04999C27.1124 1.97988 26.8876 1.97988 26.68 2.04999L14.68 6.04999C14.4799 6.11575 14.3057 6.24299 14.1822 6.41358C14.0587 6.58417 13.9922 6.78939 13.9922 6.99999C13.9922 7.21059 14.0587 7.41581 14.1822 7.5864C14.3057 7.75698 14.4799 7.88423 14.68 7.94999L19 9.38999V14C18.2044 14 17.4413 14.3161 16.8787 14.8787C16.3161 15.4413 16 16.2043 16 17C16 17.7956 16.3161 18.5587 16.8787 19.1213C17.4413 19.6839 18.2044 20 19 20H19.26C19.5291 21.0258 19.9979 21.9884 20.6397 22.8327C21.2815 23.677 22.0836 24.3863 23 24.92V26.35L18.15 28.51C16.915 29.0605 15.8659 29.9569 15.1294 31.0909C14.393 32.2249 14.0007 33.5479 14 34.9V36H12V38H52V36H46.39ZM19 18C18.7348 18 18.4804 17.8946 18.2929 17.7071C18.1054 17.5196 18 17.2652 18 17C18 16.7348 18.1054 16.4804 18.2929 16.2929C18.4804 16.1053 18.7348 16 19 16V18ZM31.53 28.77L31.29 29.71L29.71 29.18L29.34 28.45L30.02 28.11L31.53 28.77ZM33 13H21V10.05L26.68 11.95C26.8881 12.0167 27.1119 12.0167 27.32 11.95L33 10.05V13ZM36 17C36 17.2652 35.8946 17.5196 35.7071 17.7071C35.5196 17.8946 35.2652 18 35 18V16C35.2652 16 35.5196 16.1053 35.7071 16.2929C35.8946 16.4804 36 16.7348 36 17ZM18.16 6.99999L27 4.04999L35.84 6.99999L27 9.94999L18.16 6.99999ZM21 18V15H33V18C33 19.5913 32.3679 21.1174 31.2426 22.2426C30.1174 23.3678 28.5913 24 27 24C25.4087 24 23.8826 23.3678 22.7574 22.2426C21.6321 21.1174 21 19.5913 21 18ZM23.98 28.11L24.66 28.45L24.29 29.18L22.71 29.71L22.47 28.77L23.98 28.11ZM23.25 36H16V34.9C15.9999 33.9326 16.2804 32.9859 16.8076 32.1747C17.3347 31.3636 18.0859 30.7228 18.97 30.33L20.62 29.6L21.03 31.24C21.0638 31.3744 21.1246 31.5005 21.2089 31.6106C21.2932 31.7207 21.399 31.8123 21.52 31.88C21.6674 31.9596 21.8325 32.0008 22 32C22.1085 31.998 22.2161 31.9812 22.32 31.95L24.68 31.16L23.25 36ZM25.34 36L26.3 32.71C26.4857 32.8956 26.7375 32.9999 27 32.9999C27.2625 32.9999 27.5143 32.8956 27.7 32.71L28.66 36H25.34ZM26.22 29.8L26.62 29H27.38L27.78 29.8L27 30.59L26.22 29.8ZM29 26.38L27.76 27H26.24L25 26.38V25.74C26.3108 26.0867 27.6892 26.0867 29 25.74V26.38ZM38 36H30.75L29.32 31.16L31.68 31.95C31.7839 31.9812 31.8915 31.998 32 32C32.1675 32.0008 32.3326 31.9596 32.48 31.88C32.601 31.8123 32.7068 31.7207 32.7911 31.6106C32.8754 31.5005 32.9363 31.3744 32.97 31.24L33.38 29.6L35.03 30.33C35.9141 30.7228 36.6653 31.3636 37.1924 32.1747C37.7196 32.9859 38.0001 33.9326 38 34.9V36ZM42 29C42 28.7348 42.1054 28.4804 42.2929 28.2929C42.4804 28.1053 42.7348 28 43 28H48V29C48 29.2652 47.8946 29.5196 47.7071 29.7071C47.5196 29.8946 47.2652 30 47 30H42V29ZM44.28 36H40.39L41.72 32H45.61L44.28 36Z" fill="black"/>
<path d="M51 24C52.78 24 54.5201 23.4722 56.0001 22.4832C57.4802 21.4943 58.6337 20.0887 59.3149 18.4442C59.9961 16.7996 60.1743 14.99 59.8271 13.2442C59.4798 11.4984 58.6226 9.89472 57.364 8.63604C56.1053 7.37737 54.5016 6.5202 52.7558 6.17294C51.01 5.82567 49.2004 6.0039 47.5559 6.68509C45.9113 7.36628 44.5057 8.51983 43.5168 9.99987C42.5278 11.4799 42 13.22 42 15C42.0026 17.3861 42.9517 19.6738 44.639 21.361C46.3262 23.0483 48.6139 23.9974 51 24V24ZM49.475 19.191C50.4792 18.966 51.5208 18.966 52.525 19.191C52.058 21.034 51.364 22 51 22C50.636 22 49.942 21.034 49.475 19.191ZM49 15C48.999 14.2626 49.0397 13.5258 49.122 12.793C50.3588 13.069 51.6412 13.069 52.878 12.793C53.0407 14.2605 53.0407 15.7415 52.878 17.209C51.6399 16.9455 50.3601 16.9455 49.122 17.209C49.0397 16.4756 48.999 15.738 49 15V15ZM54.4 19.894C54.72 20.0714 55.0257 20.2737 55.314 20.499C54.8788 20.8413 54.4045 21.1306 53.901 21.361C54.1007 20.884 54.2674 20.3938 54.4 19.894V19.894ZM53.9 8.639C54.4035 8.86938 54.8778 9.15874 55.313 9.501C55.0247 9.7263 54.719 9.92859 54.399 10.106C54.2664 9.60616 54.0997 9.11601 53.9 8.639V8.639ZM52.521 10.809C51.5168 11.034 50.4752 11.034 49.471 10.809C49.942 8.966 50.636 8 51 8C51.364 8 52.058 8.966 52.525 10.809H52.521ZM47.593 10.109C47.273 9.93159 46.9673 9.7293 46.679 9.504C47.1166 9.16015 47.5936 8.86976 48.1 8.639C47.9 9.11598 47.7329 9.60614 47.6 10.106L47.593 10.109ZM48.093 21.364C47.5895 21.1336 47.1152 20.8443 46.68 20.502C46.9683 20.2767 47.274 20.0744 47.594 19.897C47.729 20.396 47.898 20.8852 48.1 21.361L48.093 21.364ZM56.702 19.045C56.1208 18.5708 55.4825 18.1714 54.802 17.856C55.0607 15.9628 55.0607 14.0432 54.802 12.15C55.4827 11.8349 56.121 11.4354 56.702 10.961C57.5442 12.1405 57.9969 13.5537 57.9969 15.003C57.9969 16.4523 57.5442 17.8655 56.702 19.045V19.045ZM45.3 10.958C45.881 11.4323 46.5194 11.8318 47.2 12.147C46.9407 14.0402 46.9407 15.9598 47.2 17.853C46.5193 18.1681 45.881 18.5676 45.3 19.042C44.4578 17.8625 44.0051 16.4493 44.0051 15C44.0051 13.5507 44.4578 12.1375 45.3 10.958V10.958Z" fill="black"/>
</svg>
